<svg baseProfile="basic" xmlns="http://www.w3.org/2000/svg" xmlns:xlink="http://www.w3.org/1999/xlink" viewBox="0 0 21 14"><defs><path id="a" d="M.004 0h21v14h-21z"/></defs><clipPath id="b"><use xlink:href="#a" overflow="visible"/></clipPath><path clip-path="url(#b)" fill="#002C8A" d="M.004 0h21v14h-21z"/><g clip-path="url(#b)"><path fill="#FFF" d="M8.24 7L0 13.146v.87h.51l8.567-6.39m-7.243 6.388h1.534l7.136-5.325-.766-.572M19.216 0L17.62.004 10.503 5.31l.798.596M21.004 0h-.464l-8.577 6.4.806.6L21.003.857"/><path fill="#FFF" d="M11.197 6.97L20.622 14h.382v-.857L12.77 7l-.807-.6m-1.493.126l.832-.62-.798-.595-7.1-5.297H1.74m8.836 7.479l-.838.625.766.57 7.122 5.315L19.3 14M9.85 7.048L.422.015H0v.84L8.24 7l.837.625m1.333-.987l.166.22.06-.08-.165-.22"/><path fill="#C81318" d="M10.47 6.526l.016.01-.015.022.166.22.11-.146.45.338.767-.57L20.54 0h-1.324l-7.914 5.906"/><path fill="#C81318" d="M9.85 7.048l.557-.416.004.006.06-.08.016-.02-.015-.012L1.743.014H.422M11.197 6.97l-.452-.338-.11.147-.06.08.305.406-.304.227L19.3 14h1.322"/><path fill="#C81318" d="M10.576 7.493l.304-.227-.304-.407-.165-.222-.003-.006-.557.416-.773.577-8.566 6.39h1.324L9.74 8.117"/></g><path clip-path="url(#b)" fill="none" d="M.004 0h21v14h-21z"/><path clip-path="url(#b)" fill="#FFF" d="M21.004 4h-8V0h-5v4h-8v5h8v5h5V9h8"/><path clip-path="url(#b)" fill="#C81318" d="M21 4.936h-9V0H9l.004 4.936h-9v3h9L9 14h3l.004-6.064h9"/></svg>