<svg baseProfile="basic" xmlns="http://www.w3.org/2000/svg" viewBox="0 0 13 13"><path fill="#E2E2E2" d="M13 6.5A6.497 6.497 0 006.66.008C6.608.008 6.555 0 6.5 0c-.084 0-.166.01-.25.013A6.496 6.496 0 000 6.5a6.496 6.496 0 006.25 6.488c.084.003.166.012.25.012.054 0 .107-.007.16-.008A6.497 6.497 0 0013 6.5zm-1.083 0c0 .096-.022.186-.027.28-.658.333-1.354.596-2.074.804.05-.355.08-.716.08-1.084 0-.306-.02-.608-.054-.906.63-.167 1.244-.368 1.832-.623.143.49.243.996.243 1.53zm-8.22 0c0-.257.024-.508.05-.758.73.157 1.48.26 2.253.29v2.02c-.75-.03-1.478-.144-2.186-.307A7.316 7.316 0 013.696 6.5zm5.308-1.73c-.65.14-1.32.232-2.005.26V1.197a7.654 7.654 0 012.005 3.575zM6 1.118V5.03c-.714-.03-1.41-.126-2.085-.274A7.677 7.677 0 016 1.116zm0 7.938v2.828a7.726 7.726 0 01-1.913-3.058c.624.118 1.26.205 1.913.23zm1 2.75v-2.75a12.872 12.872 0 001.824-.214A7.704 7.704 0 017 11.805zm0-3.752V6.03a12.888 12.888 0 002.17-.273c.026.245.05.49.05.743 0 .43-.05.85-.122 1.263-.68.152-1.378.26-2.098.29zm4.303-4.01c-.525.23-1.074.41-1.634.564A8.27 8.27 0 007.997 1.31a5.42 5.42 0 013.305 2.734zM4.895 1.34a8.204 8.204 0 00-1.64 3.245 12.089 12.089 0 01-1.558-.54A5.429 5.429 0 014.895 1.34zM1.083 6.5c0-.534.1-1.04.243-1.528.563.244 1.15.437 1.75.6a8.128 8.128 0 00-.055.928c0 .358.03.71.076 1.056A11.906 11.906 0 011.11 6.78c-.005-.094-.027-.184-.027-.28zm.23 1.483c.646.282 1.322.505 2.017.68.31 1.1.84 2.115 1.56 2.99a5.407 5.407 0 01-3.577-3.67zm6.684 3.71c.73-.88 1.266-1.9 1.582-3.004.727-.18 1.433-.412 2.107-.706a5.417 5.417 0 01-3.69 3.708z"/></svg>