<svg baseProfile="basic" xmlns="http://www.w3.org/2000/svg" viewBox="0 0 21 14"><path fill="#BF0000" d="M0 0h21v14H0z"/><path fill="#FFF" d="M21 4h-7.223a5.832 5.832 0 00-2.76-2.76V0h-5v1.24A5.819 5.819 0 003.253 4H0v5h3.254a5.832 5.832 0 002.76 2.76V14h5v-2.24A5.836 5.836 0 0013.776 9H21V4z"/><path d="M21 5h-7.696a5.021 5.021 0 00-3.29-3.29V0h-3v1.71A5.023 5.023 0 003.727 5H0v3h3.726a5.021 5.021 0 003.29 3.29V14h3v-2.71A5.018 5.018 0 0013.304 8H21V5z"/><circle fill="#FFF" cx="8.515" cy="6.5" r="4.125"/><path d="M10.057 7.362l.014.008c.58.197 1.103.497 1.56.883l.002-3.507c-.72.61-1.615 1.214-2.603 1.38.067-.402.224-.786.348-1.156v-.013l.008-.014a4.802 4.802 0 01.883-1.558l-3.51-.003c.645.76 1.28 1.71 1.4 2.763-1.05-.12-2-.756-2.762-1.4L5.4 8.253c.46-.39.99-.69 1.572-.888l.007-.004h.005c.37-.123.754-.28 1.155-.348-.164.99-.768 1.882-1.38 2.604l3.51-.002c-.39-.46-.69-.99-.89-1.572l-.002-.007V8.03c-.105-.315-.23-.64-.31-.978.337.08.663.204.978.31h.01z"/></svg>