<svg baseProfile="basic" xmlns="http://www.w3.org/2000/svg" viewBox="0 0 21 14"><path fill="#AE0F0D" d="M0 0h21v14H0z"/><path fill="#FED514" d="M5.55 5.116L6.2 7 4.5 5.836 2.8 7l.65-1.884-1.7-1.164h2.1l.65-1.885.65 1.885h2.1M8.78 1.96l.163.472-.425-.29-.425.29.162-.47-.425-.292h.525l.163-.472.162.472h.526M8.78 7.495l.163.47-.425-.29-.425.29.162-.47-.425-.292h.525l.163-.47.162.47h.526m1.524-1.296l.164.472-.425-.293-.426.292.162-.473-.425-.29h.526l.163-.472.16.47h.526m-.425-2.16l.164.47-.425-.29-.426.29.162-.47-.425-.292h.526l.163-.47.16.47h.526"/></svg>