<svg baseProfile="basic" xmlns="http://www.w3.org/2000/svg" viewBox="0 0 21 14"><path fill="#AE0F0D" d="M0 0h21v14H0z"/><path fill="#E5E512" d="M9.243 6.51l-.752-.72a3.138 3.138 0 00.545-1.953C8.942 2.243 8.192 1.697 6.97 1c.877.924 1.113 1.4 1.113 2.853 0 .42-.13.844-.36 1.2l-2.07-1.987.847-.847-1.527-.096L3.57 3.522l.805.822.57-.57 2.032 1.95c-.312.16-.674.24-1.082.175-1.09-.176-1.474-.49-1.74-.994l-.527.528-.15-.15-.144.143a.422.422 0 00-.394.107.42.42 0 00-.12.28c-.152.054-.734.452-.81.528a.517.517 0 00.73.728c.075-.075.473-.657.528-.808a.428.428 0 00.28-.12c.106-.108.137-.257.106-.395l.124-.124c.53.7 1.137 1.17 2.242 1.292.698.077 1.293-.094 1.77-.413l.75.72.703-.71z"/></svg>