<svg baseProfile="basic" xmlns="http://www.w3.org/2000/svg" viewBox="0 0 21 14"><path fill="#FFF" d="M0 0h21v14H0z"/><path fill="#00007D" d="M-.006-.003h11v9h-11z"/><path fill="#C81318" d="M11 0h10v1H11zm0 2h10v1H11zm0 2h10v1H11zm0 2h10v1H11zm0 2h10v1H11zM0 10h21v1H0zm0 2h21v1H0z"/><path fill="#FFF" d="M1.672 1.552l.118.343-.31-.212-.31.212.12-.343-.31-.212h.382l.12-.343.117.343h.382m.699 1.265l.12.343-.31-.212-.31.212.118-.343-.31-.212h.383l.12-.343.117.343h.383M2.68.57l.12.34L2.49.7l-.31.212.118-.343-.31-.213h.383l.12-.343.117.343h.383M.685 2.605l.118.343-.31-.212-.31.212.12-.343-.31-.212h.382l.12-.343.117.343h.383M.685.57l.118.34L.493.7l-.31.212.12-.343-.31-.213h.382l.12-.343.117.343h.383m3.683 2.249l.12.343-.31-.212-.31.212.118-.343-.31-.212h.383l.117-.343.118.343h.383M4.678.57l.12.342L4.487.7l-.31.212.118-.343-.31-.213h.383l.117-.343.118.343h.383m1.696 2.249l.12.343-.31-.212-.31.212.118-.343-.31-.212h.383l.118-.343.12.343h.382M6.682.57l.12.342L6.49.7l-.31.212L6.3.57 5.99.356h.383L6.49.014l.12.343h.382m1.691 2.248l.118.343-.308-.212-.31.212.118-.343-.31-.212h.383l.12-.343.117.343h.383M8.683.57L8.8.91 8.493.7l-.31.212L8.3.57 7.99.356h.383l.12-.343.117.343h.383m1.692 2.249l.118.343-.31-.212-.31.212.12-.343-.31-.212h.382l.118-.343.12.343h.38M10.685.57l.118.342-.31-.212-.31.212.12-.343-.31-.213h.382l.118-.343.12.343h.38m-.308 4.24l.118.343-.31-.213-.31.212.12-.344-.31-.212h.382l.118-.343.12.344h.38m-.308 2.214l.118.343-.31-.212-.31.212.12-.343-.31-.212h.382l.118-.343.12.343h.38M8.683 8.57l.118.342-.308-.212-.31.212.118-.343-.31-.213h.383l.12-.343.117.343h.383m1.691.214l.118.342-.31-.212-.31.212.12-.343-.31-.213h.382l.118-.343.12.343h.38m-4.311.214l.12.342-.31-.212-.31.212.118-.343-.31-.213h.383l.118-.343.12.343h.382m-2.315.214l.12.342-.31-.212-.31.212.118-.343-.31-.213h.383l.117-.343.118.343h.383M2.68 8.57l.12.342-.31-.212-.31.212.118-.343-.31-.213h.383l.12-.343.117.343h.383M.685 8.57l.118.342-.31-.212-.31.212.12-.343-.31-.213h.382l.12-.343.117.343h.383m1.685-3.76l.12.343-.31-.213-.31.212.118-.344-.31-.212h.383l.12-.343.117.344h.383m-2.306.213l.118.343-.31-.213-.31.212.12-.344-.31-.212h.382l.12-.343.117.344h.383m3.683.213l.12.343-.31-.213-.31.212.118-.344-.31-.212h.383l.117-.343.118.344h.383m1.695.213l.12.343-.31-.213-.31.212.118-.344-.31-.212h.383l.118-.343.12.344h.382m1.69.213l.118.343-.308-.213-.31.212.118-.344-.31-.212h.383l.12-.343.117.344h.383M2.68 6.597l.12.343-.31-.212-.31.212.118-.343-.31-.212h.383l.12-.343.117.343h.383m-2.306.212l.118.343-.31-.212-.31.212.12-.343-.31-.212h.382l.12-.343.117.343h.383m3.683.212l.12.343-.31-.212-.31.212.118-.343-.31-.212h.383l.117-.343.118.343h.383m1.695.212l.12.343-.31-.212-.31.212.118-.343-.31-.212h.383l.118-.343.12.343h.382m1.69.212l.118.343-.308-.212-.31.212.118-.343-.31-.212h.383l.12-.343.117.343h.383M3.672 1.552l.118.343-.31-.212-.31.212.12-.343-.31-.212h.382l.12-.343.117.343h.382m1.699.212l.118.343-.31-.212-.31.212.12-.343-.31-.212h.382l.118-.343.118.343h.383m1.691.212l.118.343-.31-.212-.31.212.12-.343-.31-.212h.382l.118-.343.118.343h.383m1.691.212l.118.343-.31-.212-.31.212.12-.343-.31-.212h.382l.118-.343.118.343h.383M1.672 3.555l.118.344-.31-.214-.31.213.12-.345-.31-.212h.382L1.482 3l.117.343h.382m1.691.212l.118.344-.31-.214-.31.213.12-.345-.31-.212h.382L3.482 3l.117.343h.382m1.699.212l.118.344-.31-.214-.31.213.12-.345-.31-.212h.382L5.488 3l.118.343h.383m1.691.212l.118.344-.31-.214-.31.213.12-.345-.31-.212h.382L7.488 3l.118.343h.383m1.691.212l.118.344-.31-.214-.31.213.12-.345-.31-.212h.382L9.488 3l.118.343h.383M1.687 5.555l.118.344-.31-.214-.31.213.12-.345-.31-.212h.382L1.497 5l.117.343h.382m1.676.212l.118.344-.31-.214-.31.213.12-.345-.31-.212h.382L3.482 5l.117.343h.382m1.699.212l.118.344-.31-.214-.31.213.12-.345-.31-.212h.382L5.488 5l.118.343h.383m1.691.212l.118.344-.31-.214-.31.213.12-.345-.31-.212h.382L7.488 5l.118.343h.383m1.691.212l.118.344-.31-.214-.31.213.12-.345-.31-.212h.382L9.488 5l.118.343h.383M1.672 7.657L1.79 8l-.31-.212L1.17 8l.12-.343-.31-.212h.382l.12-.344.117.345h.382m1.691.211L3.79 8l-.31-.212L3.17 8l.12-.343-.31-.212h.382l.12-.344.117.345h.382m1.699.211L5.797 8l-.31-.212-.31.212.12-.343-.31-.212h.382l.118-.344.118.345h.383m1.692.211L7.797 8l-.31-.212-.31.212.12-.343-.31-.212h.382l.118-.344.118.345h.383m1.692.211L9.797 8l-.31-.212-.31.212.12-.343-.31-.212h.382l.118-.344.118.345h.383"/></svg>